<mxfile host="Electron" agent="Mozilla/5.0 (Windows NT 10.0; Win64; x64) AppleWebKit/537.36 (KHTML, like Gecko) draw.io/24.7.8 Chrome/128.0.6613.36 Electron/32.0.1 Safari/537.36" version="24.7.8">
  <diagram name="Pagina-1" id="0HmjSLc4NNgIAtNBORb4">
    <mxGraphModel dx="1050" dy="621" grid="1" gridSize="10" guides="1" tooltips="1" connect="1" arrows="1" fold="1" page="1" pageScale="1" pageWidth="15000" pageHeight="15000" math="0" shadow="0">
      <root>
        <mxCell id="0" />
        <mxCell id="1" parent="0" />
        <mxCell id="l1rVb8GW7DXcUY35VYKV-1" value="zs_1: Prompt" style="rounded=0;whiteSpace=wrap;html=1;snapToPoint=1;points=[[0.1,0],[0.2,0],[0.3,0],[0.4,0],[0.5,0],[0.6,0],[0.7,0],[0.8,0],[0.9,0],[0,0.1],[0,0.3],[0,0.5],[0,0.7],[0,0.9],[0.1,1],[0.2,1],[0.3,1],[0.4,1],[0.5,1],[0.6,1],[0.7,1],[0.8,1],[0.9,1],[1,0.1],[1,0.3],[1,0.5],[1,0.7],[1,0.9]];" parent="1" vertex="1">
          <mxGeometry x="200" y="250" width="150" height="40" as="geometry" />
        </mxCell>
        <mxCell id="l1rVb8GW7DXcUY35VYKV-2" value="rs_1: Response" style="rounded=0;whiteSpace=wrap;html=1;snapToPoint=1;points=[[0.1,0],[0.2,0],[0.3,0],[0.4,0],[0.5,0],[0.6,0],[0.7,0],[0.8,0],[0.9,0],[0,0.1],[0,0.3],[0,0.5],[0,0.7],[0,0.9],[0.1,1],[0.2,1],[0.3,1],[0.4,1],[0.5,1],[0.6,1],[0.7,1],[0.8,1],[0.9,1],[1,0.1],[1,0.3],[1,0.5],[1,0.7],[1,0.9]];" parent="1" vertex="1">
          <mxGeometry x="460" y="390" width="150" height="40" as="geometry" />
        </mxCell>
        <mxCell id="l1rVb8GW7DXcUY35VYKV-3" value="" style="endArrow=classic;html=1;exitX=0.4;exitY=1;exitDx=0;exitDy=0;entryX=0.5;entryY=0;entryDx=0;entryDy=0;endSize=8;arcSize=0;rounded=0;" parent="1" source="l1rVb8GW7DXcUY35VYKV-1" target="l1rVb8GW7DXcUY35VYKV-2" edge="1">
          <mxGeometry width="50" height="50" relative="1" as="geometry">
            <mxPoint x="340" y="320" as="sourcePoint" />
            <mxPoint x="537" y="320" as="targetPoint" />
          </mxGeometry>
        </mxCell>
        <mxCell id="l1rVb8GW7DXcUY35VYKV-4" value="&lt;font color=&quot;#000000&quot;&gt;prompt_follows_response&lt;/font&gt;" style="text;html=1;align=center;verticalAlign=middle;resizable=0;points=[];labelBackgroundColor=#e1ff00;" parent="l1rVb8GW7DXcUY35VYKV-3" vertex="1" connectable="0">
          <mxGeometry x="-0.1269" relative="1" as="geometry">
            <mxPoint as="offset" />
          </mxGeometry>
        </mxCell>
        <mxCell id="l1rVb8GW7DXcUY35VYKV-5" value="" style="endArrow=classic;html=1;entryX=0.2;entryY=1;entryDx=0;entryDy=0;endSize=8;arcSize=0;rounded=0;exitX=0;exitY=0.7;exitDx=0;exitDy=0;" parent="1" source="l1rVb8GW7DXcUY35VYKV-2" target="l1rVb8GW7DXcUY35VYKV-1" edge="1">
          <mxGeometry width="50" height="50" relative="1" as="geometry">
            <mxPoint x="350" y="550" as="sourcePoint" />
            <mxPoint x="545" y="400" as="targetPoint" />
            <Array as="points">
              <mxPoint x="230" y="420" />
            </Array>
          </mxGeometry>
        </mxCell>
        <mxCell id="l1rVb8GW7DXcUY35VYKV-6" value="&lt;font color=&quot;#000000&quot;&gt;response_followedby_prompt&lt;/font&gt;" style="text;html=1;align=center;verticalAlign=middle;resizable=0;points=[];labelBackgroundColor=#e1ff00;" parent="l1rVb8GW7DXcUY35VYKV-5" vertex="1" connectable="0">
          <mxGeometry x="-0.1269" relative="1" as="geometry">
            <mxPoint x="43" as="offset" />
          </mxGeometry>
        </mxCell>
        <mxCell id="l1rVb8GW7DXcUY35VYKV-7" value="zs_2: Prompt" style="rounded=0;whiteSpace=wrap;html=1;snapToPoint=1;points=[[0.1,0],[0.2,0],[0.3,0],[0.4,0],[0.5,0],[0.6,0],[0.7,0],[0.8,0],[0.9,0],[0,0.1],[0,0.3],[0,0.5],[0,0.7],[0,0.9],[0.1,1],[0.2,1],[0.3,1],[0.4,1],[0.5,1],[0.6,1],[0.7,1],[0.8,1],[0.9,1],[1,0.1],[1,0.3],[1,0.5],[1,0.7],[1,0.9]];" parent="1" vertex="1">
          <mxGeometry x="710" y="250" width="150" height="40" as="geometry" />
        </mxCell>
        <mxCell id="l1rVb8GW7DXcUY35VYKV-9" value="" style="endArrow=classic;html=1;exitX=1;exitY=0.5;exitDx=0;exitDy=0;entryX=0;entryY=0.5;entryDx=0;entryDy=0;endSize=8;arcSize=0;rounded=0;" parent="1" source="l1rVb8GW7DXcUY35VYKV-1" target="l1rVb8GW7DXcUY35VYKV-7" edge="1">
          <mxGeometry width="50" height="50" relative="1" as="geometry">
            <mxPoint x="270" y="300" as="sourcePoint" />
            <mxPoint x="545" y="400" as="targetPoint" />
          </mxGeometry>
        </mxCell>
        <mxCell id="l1rVb8GW7DXcUY35VYKV-10" value="&lt;font color=&quot;#000000&quot;&gt;prompt_follows_prompt&lt;/font&gt;" style="text;html=1;align=center;verticalAlign=middle;resizable=0;points=[];labelBackgroundColor=#e1ff00;" parent="l1rVb8GW7DXcUY35VYKV-9" vertex="1" connectable="0">
          <mxGeometry x="-0.1269" relative="1" as="geometry">
            <mxPoint as="offset" />
          </mxGeometry>
        </mxCell>
        <mxCell id="l1rVb8GW7DXcUY35VYKV-12" value="" style="endArrow=classic;html=1;entryX=0.8;entryY=0;entryDx=0;entryDy=0;endSize=8;arcSize=0;rounded=0;exitX=0.2;exitY=0;exitDx=0;exitDy=0;" parent="1" source="l1rVb8GW7DXcUY35VYKV-7" target="l1rVb8GW7DXcUY35VYKV-1" edge="1">
          <mxGeometry width="50" height="50" relative="1" as="geometry">
            <mxPoint x="730" y="200" as="sourcePoint" />
            <mxPoint x="720" y="280" as="targetPoint" />
            <Array as="points">
              <mxPoint x="740" y="220" />
              <mxPoint x="520" y="220" />
              <mxPoint x="320" y="220" />
            </Array>
          </mxGeometry>
        </mxCell>
        <mxCell id="l1rVb8GW7DXcUY35VYKV-13" value="&lt;font color=&quot;#000000&quot;&gt;prompt_followedby_prompt&lt;/font&gt;" style="text;html=1;align=center;verticalAlign=middle;resizable=0;points=[];labelBackgroundColor=#e1ff00;" parent="l1rVb8GW7DXcUY35VYKV-12" vertex="1" connectable="0">
          <mxGeometry x="-0.1269" relative="1" as="geometry">
            <mxPoint as="offset" />
          </mxGeometry>
        </mxCell>
        <mxCell id="l1rVb8GW7DXcUY35VYKV-14" value="" style="endArrow=classic;html=1;endSize=8;arcSize=0;rounded=0;exitX=1;exitY=0.3;exitDx=0;exitDy=0;entryX=0.4;entryY=1;entryDx=0;entryDy=0;" parent="1" source="l1rVb8GW7DXcUY35VYKV-2" target="l1rVb8GW7DXcUY35VYKV-7" edge="1">
          <mxGeometry width="50" height="50" relative="1" as="geometry">
            <mxPoint x="670" y="350" as="sourcePoint" />
            <mxPoint x="850" y="390" as="targetPoint" />
          </mxGeometry>
        </mxCell>
        <mxCell id="l1rVb8GW7DXcUY35VYKV-15" value="&lt;font color=&quot;#000000&quot;&gt;response_follows_prompt&lt;/font&gt;" style="text;html=1;align=center;verticalAlign=middle;resizable=0;points=[];labelBackgroundColor=#e1ff00;" parent="l1rVb8GW7DXcUY35VYKV-14" vertex="1" connectable="0">
          <mxGeometry x="-0.1269" relative="1" as="geometry">
            <mxPoint as="offset" />
          </mxGeometry>
        </mxCell>
        <mxCell id="l1rVb8GW7DXcUY35VYKV-16" value="" style="endArrow=classic;html=1;endSize=8;arcSize=0;rounded=0;entryX=1;entryY=0.7;entryDx=0;entryDy=0;exitX=0.8;exitY=1;exitDx=0;exitDy=0;" parent="1" source="l1rVb8GW7DXcUY35VYKV-7" target="l1rVb8GW7DXcUY35VYKV-2" edge="1">
          <mxGeometry width="50" height="50" relative="1" as="geometry">
            <mxPoint x="860" y="370" as="sourcePoint" />
            <mxPoint x="780" y="300" as="targetPoint" />
            <Array as="points">
              <mxPoint x="830" y="420" />
            </Array>
          </mxGeometry>
        </mxCell>
        <mxCell id="l1rVb8GW7DXcUY35VYKV-17" value="&lt;font color=&quot;#000000&quot;&gt;prompt_followedby_response&lt;/font&gt;" style="text;html=1;align=center;verticalAlign=middle;resizable=0;points=[];labelBackgroundColor=#e1ff00;" parent="l1rVb8GW7DXcUY35VYKV-16" vertex="1" connectable="0">
          <mxGeometry x="-0.1269" relative="1" as="geometry">
            <mxPoint x="-77" as="offset" />
          </mxGeometry>
        </mxCell>
      </root>
    </mxGraphModel>
  </diagram>
</mxfile>
